<svg width="24" height="24" viewBox="0 0 24 24" fill="none" xmlns="http://www.w3.org/2000/svg">
<path fill-rule="evenodd" clip-rule="evenodd" d="M4.53599 5.77802C5.47363 4.84066 6.74517 4.31409 8.07099 4.31409C9.39682 4.31409 10.6684 4.84066 11.606 5.77802C11.7893 5.96069 12.0253 6.18802 12.314 6.46002C12.602 6.18802 12.8377 5.96069 13.021 5.77802C13.9547 4.84869 15.2174 4.3254 16.5348 4.32188C17.8522 4.31835 19.1177 4.83486 20.0564 5.75918C20.9951 6.68349 21.531 7.94091 21.5478 9.25817C21.5646 10.5754 21.0608 11.8461 20.146 12.794L13.02 19.92C12.8325 20.1075 12.5782 20.2128 12.313 20.2128C12.0478 20.2128 11.7935 20.1075 11.606 19.92L4.47999 12.795C3.56603 11.8524 3.0595 10.5882 3.06979 9.27525C3.08009 7.96235 3.60737 6.70618 4.53599 5.77802Z" fill="white"/>
</svg>
